# Blender 5.1.1
# www.blender.org
mtllib block_simple_collision.mtl
o block_simple_collision
v 0.001587 0.004571 -0.000146
v 0.001587 0.004571 0.015055
v -0.001576 0.004571 -0.000146
v -0.001576 0.004571 0.015055
v 0.001587 0.008858 -0.000146
v 0.001587 0.008858 0.015055
v -0.001576 0.008858 -0.000146
v -0.001576 0.008858 0.015055
v 0.007152 -0.004038 -0.000146
v 0.007152 -0.004038 0.015055
v 0.000077 0.008216 -0.000146
v 0.000077 0.008216 0.015055
v 0.008290 -0.003381 -0.000146
v 0.008290 -0.003381 0.015055
v 0.001215 0.008873 -0.000146
v 0.001215 0.008873 0.015055
v 0.007081 -0.005459 -0.000146
v 0.007081 -0.005459 0.015055
v -0.007069 -0.005459 -0.000146
v -0.007069 -0.005459 0.015055
v 0.007081 -0.004145 -0.000146
v 0.007081 -0.004145 0.015055
v -0.007069 -0.004145 -0.000146
v -0.007069 -0.004145 0.015055
v -0.008292 -0.003373 -0.000146
v -0.008292 -0.003373 0.015055
v -0.001217 0.008881 -0.000146
v -0.001217 0.008881 0.015055
v -0.007154 -0.004031 -0.000146
v -0.007154 -0.004031 0.015055
v -0.000079 0.008223 -0.000146
v -0.000079 0.008223 0.015055
v -0.006887 -0.005819 -0.000146
v -0.006887 -0.005819 0.015055
v -0.008468 -0.003080 -0.000146
v -0.008468 -0.003080 0.015055
v -0.003136 -0.003654 -0.000146
v -0.003136 -0.003654 0.015055
v -0.004717 -0.000914 -0.000146
v -0.004717 -0.000914 0.015055
v 0.003133 -0.003646 -0.000146
v 0.003133 -0.003646 0.015055
v 0.004715 -0.000906 -0.000146
v 0.004715 -0.000906 0.015055
v 0.006871 -0.005804 -0.000146
v 0.006871 -0.005804 0.015055
v 0.008453 -0.003064 -0.000146
v 0.008453 -0.003064 0.015055
vn -0.0000 -1.0000 -0.0000
vn -1.0000 -0.0000 -0.0000
vn -0.0000 1.0000 -0.0000
vn 1.0000 -0.0000 -0.0000
vn -0.0000 -0.0000 -1.0000
vn -0.0000 -0.0000 1.0000
vn -0.8660 -0.5000 -0.0000
vn -0.5000 0.8660 -0.0000
vn 0.8660 0.5000 -0.0000
vn 0.5000 -0.8660 -0.0000
vn -0.8660 0.5000 -0.0000
vn 0.5000 0.8660 -0.0000
vn 0.8660 -0.5000 -0.0000
vn -0.5000 -0.8660 -0.0000
vt 0.375000 0.000000
vt 0.625000 0.000000
vt 0.625000 0.250000
vt 0.375000 0.250000
vt 0.625000 0.500000
vt 0.375000 0.500000
vt 0.625000 0.750000
vt 0.375000 0.750000
vt 0.625000 1.000000
vt 0.375000 1.000000
vt 0.125000 0.500000
vt 0.125000 0.750000
vt 0.875000 0.500000
vt 0.875000 0.750000
s 0
usemtl Material.021
f 1/1/1 2/2/1 4/3/1 3/4/1
f 3/4/2 4/3/2 8/5/2 7/6/2
f 7/6/3 8/5/3 6/7/3 5/8/3
f 5/8/4 6/7/4 2/9/4 1/10/4
f 3/11/5 7/6/5 5/8/5 1/12/5
f 8/5/6 4/13/6 2/14/6 6/7/6
usemtl Material
f 9/1/7 10/2/7 12/3/7 11/4/7
f 11/4/8 12/3/8 16/5/8 15/6/8
f 15/6/9 16/5/9 14/7/9 13/8/9
f 13/8/10 14/7/10 10/9/10 9/10/10
f 11/11/5 15/6/5 13/8/5 9/12/5
f 16/5/6 12/13/6 10/14/6 14/7/6
usemtl Material.024
f 17/1/1 18/2/1 20/3/1 19/4/1
f 19/4/2 20/3/2 24/5/2 23/6/2
f 23/6/3 24/5/3 22/7/3 21/8/3
f 21/8/4 22/7/4 18/9/4 17/10/4
f 19/11/5 23/6/5 21/8/5 17/12/5
f 24/5/6 20/13/6 18/14/6 22/7/6
usemtl Material.022
f 25/1/11 26/2/11 28/3/11 27/4/11
f 27/4/12 28/3/12 32/5/12 31/6/12
f 31/6/13 32/5/13 30/7/13 29/8/13
f 29/8/14 30/7/14 26/9/14 25/10/14
f 27/11/5 31/6/5 29/8/5 25/12/5
f 32/5/6 28/13/6 26/14/6 30/7/6
usemtl Material.023
f 33/1/7 34/2/7 36/3/7 35/4/7
f 35/4/8 36/3/8 40/5/8 39/6/8
f 39/6/9 40/5/9 38/7/9 37/8/9
f 37/8/10 38/7/10 34/9/10 33/10/10
f 35/11/5 39/6/5 37/8/5 33/12/5
f 40/5/6 36/13/6 34/14/6 38/7/6
usemtl Material.025
f 41/1/11 42/2/11 44/3/11 43/4/11
f 43/4/12 44/3/12 48/5/12 47/6/12
f 47/6/13 48/5/13 46/7/13 45/8/13
f 45/8/14 46/7/14 42/9/14 41/10/14
f 43/11/5 47/6/5 45/8/5 41/12/5
f 48/5/6 44/13/6 42/14/6 46/7/6
