# Blender 5.1.1
# www.blender.org
mtllib peg_board_s.mtl
o peg_board_s
v 0.099999 0.015000 -0.049999
v 0.099999 0.015000 0.049999
v 0.099999 0.000000 -0.049999
v 0.099999 0.000000 0.049999
v -0.099999 0.015000 -0.049999
v -0.099999 0.000000 -0.049999
v -0.099999 0.015000 0.049999
v -0.099999 0.000000 0.049999
vn 1.0000 -0.0000 -0.0000
vn -0.0000 -0.0000 -1.0000
vn -1.0000 -0.0000 -0.0000
vn -0.0000 -0.0000 1.0000
vn -0.0000 1.0000 -0.0000
vn -0.0000 -1.0000 -0.0000
s 0
usemtl pegboard_mat
f 1//1 2//1 3//1
f 3//1 2//1 4//1
f 5//2 1//2 6//2
f 6//2 1//2 3//2
f 7//3 5//3 8//3
f 8//3 5//3 6//3
f 2//4 7//4 4//4
f 4//4 7//4 8//4
f 5//5 7//5 1//5
f 1//5 7//5 2//5
f 8//6 6//6 4//6
f 4//6 6//6 3//6
